<svg xmlns="http://www.w3.org/2000/svg" class="SiteLogo_white__CuqqD" width="265" height="60" viewBox="0 0 265 60" fill="none"><path class="SiteLogo_green__Yq0xG" fill="#2DA343" d="M61.7,43.2c0,0-1.1,1-3.9,2.6l0.1,0.1c0,0,2.1-0.8,4.3-2.2L61.7,43.2z"/><path class="SiteLogo_green__Yq0xG" fill="#2DA343" d="M62.6,44.4c0,0-1,1.1-3.8,2.7l0.1,0.1c0,0,2.1-0.8,4.2-2.2L62.6,44.4z"/><path class="undefined" d="M61.3,8.3l-7.9,0l-1.2,1.5l-7.9,0l-8,0l-1.2-1.5l-7.9,0l1.2,1.5c0,0,1.1,1.3,1.1,4.4v21c0,0,0,5.6,5.9,5.9 l4.4,0c0,0,0,0,0,0c0.2,0,2.4,0,4.4,2.1c2-2.1,4.2-2.1,4.4-2.1c0,0,0,0,0,0l4.4,0c5.9-0.4,5.9-5.9,5.9-5.9v-21 c-0.1-3.3,1.3-4.8,1.3-4.8L61.3,8.3z M34.7,9L44.2,21l9.6-12.1l5.9,0L47.2,24.7l10.3,13c-1.1,2.4-3.8,2.6-3.8,2.6l-9.5-11.8 l-9.5,11.8c0,0-2.7-0.3-3.8-2.6l10.3-13L28.8,9H34.7L34.7,9z"/><path class="SiteLogo_green__Yq0xG" fill="#2DA343" d="M26.6,43.2c0,0,1.1,1,3.9,2.6L30.4,46c0,0-2.1-0.8-4.3-2.2L26.6,43.2z"/><path class="SiteLogo_green__Yq0xG" fill="#2DA343" d="M25.7,44.4c0,0,1,1.1,3.8,2.7l-0.1,0.1c0,0-2.1-0.8-4.2-2.2L25.7,44.4z"/><path class="SiteLogo_green__Yq0xG" fill="#2DA343" d="M44.2,53.2c-7.5,0-14.2-2.5-19.9-7.1l0.5-0.6c5.6,4.5,12.1,6.9,19.5,6.9h0c7.3,0,13.9-2.5,19.5-6.9l0.5,0.6 C58.5,50.7,51.7,53.2,44.2,53.2L44.2,53.2z"/><path class="SiteLogo_green__Yq0xG" fill="#2DA343" d="M14.8,23.2c0,0-1.7-1.2-2.8-1.8c-1.1-0.6-3.1-1.9-3.1-1.9s1.6,0.9,2.4,0.7c0.5-0.1-0.4-1.3-0.9-2.2L14.8,23.2z"/><path class="SiteLogo_green__Yq0xG" fill="#2DA343" d="M15.5,33c0,0-4.2,0.7-7.4,6c0,0,1.3-4.3-2.1-6.7c0,0,2,1.5,3.1,1.4c0.5-0.1,0.4-0.7-0.2-1.4 c0,0,1.4,1.3,3.7,1.1C14.4,33.1,15.5,33,15.5,33z"/><path class="SiteLogo_green__Yq0xG" fill="#2DA343" d="M21.3,39.6c0.5-2.1-1-3.5-1.8-3.6c-3.9-0.7-4.7,5.3-4.7,5.3c-0.9-3.2-2.2-2.3-2.2-2.3c-1.9,0.9-2.2,5.3-2.2,5.3 c0-3.2-1-2.8-1-2.8c-1.9,0.6-3.2,4.3-3.2,4.3l-0.1,0c1.4-4,2.4-5.4,2.4-5.4c4.5-7.2,9.6-6.3,11.2-5.6c1.6,0.7,2.5,1.3,4.3,3.9 c1.1,1.6,3.1,3.1,3.7,3.6c0.6,0.5,1.2,1,3.9,2.6l-0.1,0.1c0,0-2.1-0.8-4.3-2.2c-2.4-1.5-4.3-3.7-5.2-3.4 C21.6,39.3,21.3,39.6,21.3,39.6z"/><path class="SiteLogo_pink__2b9e5" fill="#C183B9" d="M19.2,9l0.7,0.7L20.6,9l0.8,0.7l0.7-0.7l2.2,1.9c0,0-0.6,0.3-0.8,0.8c-0.3,0.5-1,2.6-1,2.6h-0.3 c0,0,0.5-1.8,0.3-2.5h-0.1c0,0-1.1,1.6-1.3,2.5l-0.2,0c0,0,0.2-1.9-0.1-2.7h-0.1c0,0-0.7,1.6-0.8,2.7h-0.2c0,0-0.2-2.1-0.5-2.9H19 c-0.3,0.8-0.5,2.9-0.5,2.9h-0.2c-0.1-1.1-0.8-2.7-0.8-2.7h-0.1c-0.3,0.8-0.1,2.7-0.1,2.7h-0.2c-0.2-0.9-1.3-2.5-1.3-2.5h-0.1 c-0.2,0.7,0.3,2.5,0.3,2.5h-0.3c0,0-0.7-2-1-2.6c-0.3-0.5-0.8-0.8-0.8-0.8L16.2,9l0.7,0.7L17.7,9l0.7,0.7L19.2,9z"/><path class="SiteLogo_green__Yq0xG" fill="#2DA343" d="M18.8,20.5v0.2c0.1,7.5,3.3,13.8,3.3,13.8s-1.8-2.7-2.8-4c-0.7-1-1.7-1.9-1.7-1.9C16,27.3,14.7,30,14.7,30 c1.2-2.5-0.2-3.5-0.2-3.5c-2-1.5-3.5,1.1-3.5,1.1c1.5-3.7-0.4-4.7-0.4-4.7c-2.1-1.2-4.9-0.6-5.5-0.4c0.4-0.1,1.7-0.5,2.2-0.8 c0.6-0.4-0.1-0.9-0.1-0.9c-1.6-1-2.8-1.4-2.8-1.4l0-0.1c5,1.2,9,3.8,11.1,5.3c2.2,1.5,2.5,0.3,2.5,0.3c0.3-1.7-1.7-3.2-1.7-3.2 s0.4,0.1,0.5,0.1c0.7,0,1.2-0.6,1.2-1.3l0-1c-0.4-0.1-0.7-0.1-1.1-0.3c0,0-3.1-1.2-3.3-4.5h0.3c0,0,0.1,2,1.5,3c0-0.2,0-0.6,0-0.6 c-0.4-0.5-0.7-1.2-0.6-2.4c0,0,0.3,0,0.2,0c0,0.3-0.1,1.2,0.4,1.9c0.1-0.4,0.2-0.6,0.5-0.9c0.3-0.3,0.1-1,0-1.1h0.2 c0,0,0.6,0.4,1,1.4c0.1,0.3,0.1,0.5,0.1,0.8l0.4-2.2l0.7,2.3l0.8-2.4l0.7,2.4l0.8-2.3l0.4,2.2c0-0.3,0-0.4,0.1-0.8 c0.4-1,1-1.4,1-1.4h0.2c-0.1,0.1-0.3,0.7,0,1.1c0.2,0.2,0.4,0.5,0.5,0.9c0.6-0.7,0.5-1.6,0.5-1.9h0.2c0.1,1.3-0.3,1.9-0.7,2.4 c0,0,0,0.5,0,0.6c1.4-1,1.6-3,1.6-3h0.2c-0.3,3.4-3.1,4.4-3.3,4.5c-0.4,0.2-1,0.3-1,0.3v1c0,1.9,1.2,3,2.4,3c0.5,0,0.9-0.3,0.9-0.3 c-3.5,3.4-2.2,6.7-2.2,6.7c-1.4-2.6-1.8-7.2-1.8-9.2v-1.2h-0.7L18.8,20.5z"/><path class="SiteLogo_green__Yq0xG" fill="#2DA343" d="M44.2,46.5c-4.5,0-9.3-1.3-12.7-3.5c-1.6-1.1-3.7-3.9-3.6-6.3c0,0-1,0.7-1.8-0.3c-0.8-0.9-0.2-3.1,0.5-4.3 c0,0-1,0.3-1.7-0.3c-0.7-0.6-0.5-2.3,0.7-3.3c1-0.8,1.8-0.8,2.4-1c0,0-3.4-0.2-2.2-2.9c0.2-0.5,0.6-1.3,0.8-1.8c0.9-2,0-4.2,0-4.2 s0.3,2.2-2.3,5.3c-1.7,2.1-2.5,4.5-2,7.6c0.5,3,1.6,6.4,5.2,9.4c1.3,1.1,1.4,1.1,3.7,2.8c3.8,2.2,8.3,3.5,13,3.5"/><path class="SiteLogo_green__Yq0xG" fill="#2DA343" d="M73.6,23.2c0,0,1.7-1.2,2.8-1.8c1.1-0.6,3.1-1.9,3.1-1.9s-1.6,0.9-2.4,0.7c-0.5-0.1,0.4-1.3,0.9-2.2L73.6,23.2z "/><path class="SiteLogo_green__Yq0xG" fill="#2DA343" d="M72.9,33c0,0,4.2,0.7,7.4,6c0,0-1.3-4.3,2.1-6.7c0,0-2,1.5-3.1,1.4c-0.5-0.1-0.4-0.7,0.2-1.4 c0,0-1.4,1.3-3.7,1.1C74,33.1,72.9,33,72.9,33z"/><path class="SiteLogo_green__Yq0xG" fill="#2DA343" d="M67.1,39.6c-0.5-2.1,1-3.5,1.8-3.6c3.9-0.7,4.7,5.3,4.7,5.3c0.9-3.2,2.2-2.3,2.2-2.3c1.9,0.9,2.2,5.3,2.2,5.3 c0-3.2,1-2.8,1-2.8c1.9,0.6,3.2,4.3,3.2,4.3l0.1,0c-1.4-4-2.4-5.4-2.4-5.4c-4.5-7.2-9.6-6.3-11.2-5.6c-1.6,0.7-2.5,1.3-4.2,3.9 c-1.1,1.6-3.1,3.1-3.7,3.6c-0.6,0.5-1.2,1-3.9,2.6l0.1,0.1c0,0,2.1-0.8,4.3-2.2c2.4-1.5,4.3-3.7,5.2-3.4 C66.8,39.3,67.1,39.6,67.1,39.6z"/><path class="SiteLogo_pink__2b9e5" fill="#C183B9" d="M69.2,9l-0.7,0.7L67.8,9L67,9.7l-0.7-0.7l-2.2,1.9c0,0,0.6,0.3,0.8,0.8c0.3,0.5,1,2.6,1,2.6h0.3 c0,0-0.5-1.8-0.3-2.5H66c0,0,1.1,1.6,1.3,2.5h0.2c0,0-0.2-1.9,0.1-2.7h0.1c0,0,0.7,1.6,0.8,2.7l0.2,0c0,0,0.2-2.1,0.5-2.9l0.2,0 c0.3,0.8,0.5,2.9,0.5,2.9l0.2,0c0.1-1.1,0.8-2.7,0.8-2.7H71c0.3,0.8,0.1,2.7,0.1,2.7h0.2c0.2-0.9,1.3-2.5,1.3-2.5h0.1 c0.2,0.7-0.3,2.5-0.3,2.5h0.3c0,0,0.7-2,1-2.6c0.3-0.5,0.8-0.8,0.8-0.8L72.2,9l-0.7,0.7L70.7,9L70,9.7L69.2,9z"/><path class="SiteLogo_green__Yq0xG" fill="#2DA343" d="M69.6,20.5v0.2c-0.1,7.5-3.3,13.8-3.3,13.8s1.8-2.7,2.8-4c0.7-1,1.8-1.9,1.8-1.9c1.6-1.3,2.8,1.4,2.8,1.4 c-1.1-2.5,0.2-3.5,0.2-3.5c2-1.5,3.5,1.1,3.5,1.1C75.9,24,77.8,23,77.8,23c2.1-1.2,4.9-0.6,5.5-0.4c-0.4-0.1-1.7-0.5-2.2-0.8 c-0.6-0.4,0.1-0.9,0.1-0.9c1.6-1,2.8-1.4,2.8-1.4l0-0.1c-5,1.2-9,3.8-11.1,5.3c-2.2,1.5-2.4,0.3-2.4,0.3c-0.3-1.7,1.7-3.2,1.7-3.2 s-0.4,0.1-0.5,0.1c-0.7,0-1.2-0.6-1.2-1.3"/><path class="SiteLogo_green__Yq0xG" fill="#2DA343" d="M70.4,20.5l0-1c0.4-0.1,0.7-0.1,1.1-0.3c0,0,3.1-1.2,3.3-4.5h-0.3c0,0-0.1,2-1.5,3c0-0.2,0.1-0.6,0-0.6 c0.4-0.5,0.7-1.2,0.6-2.4h-0.2c0,0.3,0.1,1.2-0.4,1.9c-0.1-0.4-0.2-0.6-0.5-0.9c-0.3-0.3-0.1-0.9,0-1.1h-0.2c0,0-0.6,0.4-1,1.4 c-0.1,0.3-0.1,0.5-0.1,0.8l-0.4-2.2L70,17l-0.8-2.4L68.5,17l-0.8-2.3l-0.4,2.2c0-0.3,0-0.4-0.1-0.8c-0.4-1-1-1.4-1-1.4H66 c0.1,0.1,0.3,0.7,0,1c-0.2,0.2-0.4,0.5-0.5,0.9c-0.6-0.7-0.5-1.6-0.5-1.9h-0.2c-0.1,1.3,0.3,1.9,0.7,2.4c0,0,0,0.5,0,0.6 c-1.4-1-1.6-3-1.6-3h-0.2c0.3,3.4,3.1,4.4,3.3,4.5c0.4,0.2,1,0.3,1,0.3v1c0,1.9-1.2,3-2.4,3c-0.5,0-0.9-0.3-0.9-0.3 c3.5,3.4,2.2,6.7,2.2,6.7c1.4-2.6,1.8-7.2,1.8-9.2v-1.2h0.7v1"/><path class="SiteLogo_green__Yq0xG" fill="#2DA343" d="M44.2,47.3c4.7,0,9.3-1.3,13.1-3.5c2.4-1.7,2.4-1.7,3.7-2.8c3.6-3,4.6-6.4,5.2-9.4c0.5-3-0.3-5.5-2-7.6 c-2.7-3.1-2.3-5.3-2.3-5.3s-0.9,2.2,0,4.2c0.2,0.5,0.6,1.3,0.8,1.8c1.2,2.7-2.2,2.9-2.2,2.9c0.6,0.2,1.4,0.1,2.4,1 c1.2,1,1.5,2.7,0.7,3.3c-0.8,0.6-1.7,0.3-1.7,0.3c0.6,1.2,1.3,3.3,0.5,4.3c-0.8,0.9-1.8,0.3-1.8,0.3c0.1,2.4-2,5.2-3.6,6.3 c-3.4,2.2-8.3,3.5-12.7,3.5"/><path class="SiteLogo_blue__qWXi0" fill="#00529B" d="M31.6,48.7l-0.2-0.5c0,0-0.1,0-0.1,0c-0.7-0.3-0.8-0.9-0.5-1.6c0.3-0.6,0.8-0.9,1.5-0.6 c0.6,0.3,0.8,0.9,0.5,1.6c-0.2,0.4-0.5,0.7-1,0.7l0.3,0.7L31.6,48.7z M31.4,47.8c0.4,0.2,0.8-0.1,0.9-0.5c0.2-0.4,0.2-0.8-0.2-1 c-0.4-0.2-0.8,0.1-0.9,0.5C31,47.1,31,47.6,31.4,47.8z"/><path class="SiteLogo_blue__qWXi0" fill="#00529B" d="M33.5,46.5l0.4,0.2l-0.5,1.3c-0.1,0.4-0.1,0.7,0.2,0.8c0.3,0.1,0.5-0.1,0.7-0.4l0.5-1.3l0.4,0.2l-0.5,1.4 c-0.2,0.6-0.6,0.7-1.2,0.5c-0.5-0.2-0.8-0.6-0.6-1.1L33.5,46.5z"/><path class="SiteLogo_blue__qWXi0" fill="#00529B" d="M36.1,47.5l0.5,0.1l0.2,2.5l-0.5-0.1l0-0.6l-0.9-0.3l-0.3,0.5l-0.5-0.1L36.1,47.5z M36.3,48L36.3,48l-0.6,0.8 l0.6,0.2L36.3,48z"/><path class="SiteLogo_blue__qWXi0" fill="#00529B" d="M37.6,47.9l1.3,0.3l-0.1,0.4L38,48.3l-0.1,0.6l0.8,0.2l-0.1,0.4l-0.8-0.2l-0.1,0.6l0.9,0.2l-0.1,0.4l-1.3-0.3 L37.6,47.9z"/><path class="SiteLogo_blue__qWXi0" fill="#00529B" d="M39.2,48.2l0.5,0.1c0.5,0.1,1.1,0.1,1,0.8c0,0.3-0.2,0.5-0.5,0.5v0c0.1,0,0.2,0.2,0.2,0.3l0.2,0.9l-0.5-0.1 l-0.2-0.8c0-0.2-0.1-0.3-0.3-0.3l-0.1,0l-0.1,0.9l-0.5-0.1L39.2,48.2z M39.5,49.2l0.1,0c0.2,0,0.5,0,0.5-0.2c0-0.3-0.2-0.3-0.4-0.4 l-0.1,0L39.5,49.2z"/><path class="SiteLogo_blue__qWXi0" fill="#00529B" d="M41.1,48.4l1.3,0.1l0,0.4l-0.9-0.1l0,0.6l0.8,0.1l0,0.4l-0.8-0.1l0,0.6l0.9,0.1l0,0.4l-1.3-0.1L41.1,48.4z"/><path class="SiteLogo_blue__qWXi0" fill="#00529B" d="M42.7,48.6l0.5,0c0.5,0,1.1,0,1.1,0.6c0,0.3-0.2,0.5-0.5,0.5v0c0.1,0,0.2,0.1,0.2,0.2l0.3,0.9l-0.5,0l-0.3-0.7 c-0.1-0.2-0.1-0.2-0.3-0.2l-0.1,0l0,1l-0.5,0L42.7,48.6z M43.2,49.6l0.1,0c0.2,0,0.5,0,0.5-0.3c0-0.3-0.2-0.3-0.5-0.3l-0.1,0 L43.2,49.6z"/><path class="SiteLogo_blue__qWXi0" fill="#00529B" d="M44.6,48.6l1.3-0.1l0,0.4l-0.9,0l0,0.6l0.8,0l0,0.4l-0.8,0l0,0.6l0.9,0l0,0.4l-1.3,0.1L44.6,48.6z"/><path class="SiteLogo_blue__qWXi0" fill="#00529B" d="M46.9,48.5l0.5-0.1l0.8,1.7h0l0.4-1.9l0.4-0.1l-0.5,2.4L48,50.7L46.9,48.5z"/><path class="SiteLogo_blue__qWXi0" fill="#00529B" d="M49.1,48.2l1.3-0.3l0.1,0.4l-0.9,0.2l0.1,0.6l0.8-0.2l0.1,0.4l-0.8,0.2L50,50l0.9-0.2l0.1,0.4l-1.3,0.3 L49.1,48.2z"/><path class="SiteLogo_blue__qWXi0" fill="#00529B" d="M50.7,47.9l0.5-0.1c0.5-0.1,1-0.3,1.2,0.3c0.1,0.3,0,0.5-0.3,0.6v0c0.1,0,0.2,0.1,0.3,0.2l0.6,0.8l-0.5,0.1 L52,49.2C51.9,49,51.8,49,51.7,49l-0.1,0l0.2,0.9l-0.4,0.1L50.7,47.9z M51.4,48.7l0.1,0c0.2-0.1,0.5-0.2,0.4-0.4 c-0.1-0.3-0.3-0.2-0.5-0.2l-0.1,0L51.4,48.7z"/><path class="SiteLogo_blue__qWXi0" fill="#00529B" d="M52.5,47.4l0.4-0.1l0.4,1.3c0.1,0.4,0.3,0.6,0.7,0.5c0.3-0.1,0.4-0.4,0.2-0.8l-0.4-1.3l0.4-0.1l0.5,1.4 c0.2,0.6-0.1,0.9-0.6,1.1c-0.6,0.2-1,0.1-1.2-0.5L52.5,47.4z"/><path class="SiteLogo_blue__qWXi0" fill="#00529B" d="M54.6,46.7l0.7-0.3l1.2,1.4l0,0l-0.2-1.8l0.7-0.3l0.9,2.1l-0.4,0.2l-0.8-1.7h0l0.2,2l-0.4,0.2l-1.3-1.5l0,0 l0.8,1.7l-0.4,0.2L54.6,46.7z"/><path class="SiteLogo_blue__qWXi0" fill="#00529B" d="M92.2,9.3h-0.7c-0.2,0-0.2,0.1-0.2,0.2v5c0,1.2,0.1,3.4,2.5,3.4c0.7,0,2.8-0.2,2.8-3.2v-2.3 c0-0.8,0-1.9-0.1-2.6c-0.1-0.5-0.2-0.5-0.6-0.5h-0.6V8.8h2.8v0.5h-0.4c-0.4,0-0.5,0-0.5,0.2v5.3c0,2.8-2,3.8-3.9,3.8 c-3,0-3.8-1.6-3.8-3.3v-4c0-2-0.1-2-0.6-2h-0.7V8.8h3.8V9.3z"/><path class="SiteLogo_blue__qWXi0" fill="#00529B" d="M101.5,12.8c0.8-0.6,1.5-1.1,2.3-1.1c1.2,0,1.8,0.7,1.8,2.1v2c0,1.7,0.1,2.1,0.5,2.1h0.6v0.4h-3.3v-0.4h0.4 c0.2,0,0.3,0,0.3-0.2v-3.1c0-1,0-1.9-1.1-1.9c-0.5,0-1,0.3-1.5,0.7v2.5c0,1.7,0.1,2.1,0.5,2.1h0.5v0.4h-3.3v-0.4h0.5 c0.2,0,0.3,0,0.3-0.2v-3.1c0-1.5,0-2.2-0.5-2.2h-0.6V12c0.9-0.1,1.8-0.1,2.7-0.3V12.8z"/><path class="SiteLogo_blue__qWXi0" fill="#00529B" d="M109.8,15.8c0,1.7,0.1,2.1,0.5,2.1h0.7v0.4h-3.5v-0.4h0.5c0.2,0,0.3,0,0.3-0.2v-3.1c0-1.5,0-2.2-0.5-2.2h-0.6 V12c0.9-0.1,1.8-0.1,2.7-0.3V15.8z M108.1,9.6c0-0.5,0.4-0.8,0.8-0.8c0.5,0,0.8,0.3,0.8,0.8c0,0.5-0.4,0.8-0.8,0.8 C108.5,10.4,108.1,10.1,108.1,9.6z"/><path class="SiteLogo_blue__qWXi0" fill="#00529B" d="M118.2,12.4h-0.3c-0.2,0-0.3,0-0.4,0.3l-2.5,5.7c0,0.1-0.1,0.2-0.2,0.2c-0.1,0-0.2-0.1-0.2-0.2l-1.8-4.2 c-0.5-1.3-0.8-1.8-1.2-1.8h-0.4v-0.5h3.3v0.5h-0.6c-0.2,0-0.2,0-0.2,0.1c0,0.1,0.2,0.7,0.3,0.9l1.3,3c0.3-0.7,1.4-3,1.4-3.7 c0-0.3-0.1-0.3-0.4-0.3h-0.6v-0.5h2.5L118.2,12.4z"/><path class="SiteLogo_blue__qWXi0" fill="#00529B" d="M120.5,14.5c0-0.7,0.2-2.3,1.2-2.3c0.7,0,1.2,1,1.4,1.6l-2.5,0.7L120.5,14.5z M124.5,17.1 c-0.5,0.4-1.1,0.7-1.8,0.7c-1.6,0-2.1-1.4-2.2-2.8l4.2-1.1c-0.5-1.2-1.3-2.2-2.7-2.2c-2,0-3.1,1.7-3.1,3.6c0,1.9,1,3.3,3,3.3 c1.1,0,2.1-0.4,2.9-1.1L124.5,17.1z"/><path class="SiteLogo_blue__qWXi0" fill="#00529B" d="M128.2,13.1c0.7-0.8,1.2-1.4,1.9-1.4c0.3,0,0.5,0.1,0.7,0.3l-0.2,1c0,0.3-0.1,0.4-0.2,0.4 c-0.3,0-0.1-0.5-0.9-0.5c-0.6,0-1,0.3-1.4,0.7v2.2c0,1.7,0.1,2.1,0.5,2.1h0.8v0.4h-3.6v-0.4h0.5c0.2,0,0.3,0,0.3-0.2v-3.1 c0-1.5,0-2.2-0.5-2.2h-0.6V12c0.9-0.1,1.8-0.1,2.7-0.3V13.1z"/><path class="SiteLogo_blue__qWXi0" fill="#00529B" d="M136.2,13.1c0,0.1-0.1,0.2-0.2,0.2c-0.1,0-0.2-0.1-0.2-0.2c-0.2-0.6-1-0.8-1.6-0.8c-0.5,0-1.3,0.3-1.3,0.9 c0,1.4,3.8,0.6,3.8,3c0,1.7-1.8,2.3-3.2,2.3c-0.6,0-1.3-0.1-1.9-0.3l-0.2-1.2c0-0.2,0-0.3,0.2-0.3c0.2,0,0.2,0.1,0.3,0.3 c0.2,0.6,1.1,0.9,1.7,0.9c0.7,0,1.7-0.3,1.7-1.1c0-1.5-3.8-0.6-3.8-3c0-1.1,1.1-2.1,2.8-2.1c0.6,0,1.2,0.1,1.8,0.3L136.2,13.1z"/><path class="SiteLogo_blue__qWXi0" fill="#00529B" d="M140.2,15.8c0,1.7,0.1,2.1,0.5,2.1h0.7v0.4h-3.5v-0.4h0.5c0.2,0,0.3,0,0.3-0.2v-3.1c0-1.5,0-2.2-0.5-2.2h-0.6 V12c0.9-0.1,1.8-0.1,2.7-0.3L140.2,15.8L140.2,15.8L140.2,15.8z M138.5,9.6c0-0.5,0.4-0.8,0.8-0.8c0.5,0,0.8,0.3,0.8,0.8 c0,0.5-0.4,0.8-0.8,0.8C138.9,10.4,138.5,10.1,138.5,9.6z"/><path class="SiteLogo_blue__qWXi0" fill="#00529B" d="M146.9,17c-0.4,0.4-0.8,0.7-1.3,0.6c-1.4,0-1.7-1.5-1.7-2.7s0.4-2.6,1.8-2.6c0.5,0,0.9,0.1,1.3,0.4V17z M148.4,7.8c-0.9,0.2-1.8,0.2-2.7,0.3v0.4h0.6c0.4,0,0.5,0.4,0.5,2.8v0.9c-0.5-0.3-1-0.4-1.5-0.4c-2.1,0-3.2,1.7-3.2,3.7 c0,2.3,1.4,3.2,2.5,3.2c0.9,0,1.5-0.5,2.2-1v1c0.9-0.2,1.8-0.3,2.7-0.3v-0.4h-0.6c-0.4,0-0.5-0.7-0.5-2.2V7.8z"/><path class="SiteLogo_blue__qWXi0" fill="#00529B" d="M153.9,16.8c-0.4,0.4-0.8,0.7-1.4,0.7c-0.5,0-0.7-0.3-0.7-0.8c0-0.9,1-1.5,1.8-1.8l0.3-0.1L153.9,16.8z M153.2,14.6c-1.1,0.5-2.9,1.1-2.9,2.5c0,0.9,0.5,1.5,1.4,1.5c0.8,0,1.8-0.7,2.4-1.2c0.5,1.2,1.5,1.2,1.9,1.2l0.6-0.9 c-0.9-0.2-1-0.4-1-1.6v-2.3c0-1.6-0.1-2.1-1.8-2.1c-1.3,0-3.3,0.8-3.3,1.9c0,0.3,0.2,0.5,0.5,0.5c0.6,0,1-0.7,1-1.5 c0.3-0.2,0.7-0.3,1-0.3c1,0,1,0.6,1,1.5v0.4L153.2,14.6z"/><path class="SiteLogo_blue__qWXi0" fill="#00529B" d="M162,17c-0.4,0.4-0.8,0.7-1.3,0.6c-1.4,0-1.7-1.5-1.7-2.7s0.4-2.6,1.8-2.6c0.5,0,0.9,0.1,1.3,0.4V17z M163.5,7.8c-0.9,0.2-1.8,0.2-2.7,0.3v0.4h0.6c0.4,0,0.5,0.4,0.5,2.8v0.9c-0.5-0.3-1-0.4-1.5-0.4c-2.1,0-3.2,1.7-3.2,3.7 c0,2.3,1.4,3.2,2.5,3.2c0.9,0,1.5-0.5,2.2-1v1c0.9-0.2,1.8-0.3,2.7-0.3v-0.4H164c-0.4,0-0.5-0.7-0.5-2.2V7.8z"/><path class="SiteLogo_blue__qWXi0" fill="#00529B" d="M174.1,17c-0.4,0.4-0.8,0.7-1.3,0.6c-1.4,0-1.7-1.5-1.7-2.7s0.4-2.6,1.8-2.6c0.5,0,0.9,0.1,1.3,0.4V17z M175.7,7.8c-0.9,0.2-1.8,0.2-2.7,0.3v0.4h0.6c0.4,0,0.5,0.4,0.5,2.8v0.9c-0.5-0.3-1-0.4-1.5-0.4c-2.1,0-3.2,1.7-3.2,3.7 c0,2.3,1.4,3.2,2.5,3.2c0.9,0,1.5-0.5,2.2-1v1c0.9-0.2,1.8-0.3,2.7-0.3v-0.4h-0.7c-0.4,0-0.5-0.7-0.5-2.2L175.7,7.8L175.7,7.8z"/><path class="SiteLogo_blue__qWXi0" fill="#00529B" d="M179.3,14.5c0-0.7,0.2-2.3,1.2-2.3c0.7,0,1.2,1,1.4,1.6l-2.5,0.7L179.3,14.5z M183.3,17.1 c-0.5,0.4-1.1,0.7-1.8,0.7c-1.6,0-2.1-1.4-2.2-2.8l4.2-1.1c-0.6-1.2-1.3-2.2-2.7-2.2c-2,0-3.1,1.7-3.1,3.6c0,1.9,1,3.3,3,3.3 c1.1,0,2.1-0.4,2.9-1.1L183.3,17.1z"/><path class="SiteLogo_blue__qWXi0" fill="#00529B" d="M89,29.9c0-5,5.1-7.5,9.6-7.5c1.6,0,3.4,0.2,4.9,0.8c0,1.1,0.2,2.7,0.2,3.3c0,0.5-0.3,0.6-0.6,0.6 c-0.4,0-0.5-0.3-0.6-0.7c-0.4-1.8-3.1-2.3-4.6-2.3c-2.6,0-5.3,1.4-5.3,4.4c0,6.4,13.1,3.4,13.1,13.2c0,1.3-1.2,8.1-10.2,8.1 c-2.2,0-4.5-0.4-6.6-1.2c-0.4-2.3-0.7-3.6-0.7-4.1c0-0.2,0-0.5,0.6-0.5c0.5,0,0.6,0.4,0.7,0.8c0.8,2.2,4.2,3.2,6.2,3.2 c3.1,0,6.3-1.7,6.3-5.1C102.1,36.1,89,39.3,89,29.9z"/><path class="SiteLogo_blue__qWXi0" fill="#00529B" d="M117.4,44.9c-1,1.1-2.3,2-3.7,2c-1.3,0-1.9-0.9-1.9-2.2c0-2.4,2.6-4,4.9-4.9l0.7-0.3V44.9z M115.4,38.9 c-2.9,1.2-7.8,2.9-7.8,6.8c0,2.3,1.4,4,3.8,4c2.2,0,4.8-2,6.4-3.3c1.2,3.2,4.1,3.3,5.1,3.3l1.6-2.4c-2.3-0.4-2.8-1.1-2.8-4.3v-6.3 c0-4.4-0.4-5.7-4.9-5.7c-3.6,0-9,2-9,5.3c0,0.8,0.7,1.3,1.4,1.3c1.8,0,2.7-1.8,2.7-4.1c0.8-0.5,1.8-0.8,2.7-0.8 c2.6,0,2.7,1.5,2.7,4.1V38L115.4,38.9z"/><path class="SiteLogo_blue__qWXi0" fill="#00529B" d="M132.7,34c2.2-1.6,4.1-2.9,6.3-2.9c3.2,0,4.9,1.9,4.9,5.6v5.5c0,4.7,0.2,5.7,1.3,5.7h1.5v1.2h-8.9v-1.2h1.1 c0.4,0,0.7,0,0.7-0.7v-8.5c0-2.8,0-5.1-3-5.1c-1.4,0-2.8,0.8-4,1.9v6.7c0,4.7,0.2,5.7,1.3,5.7h1.4v1.2h-9.1v-1.2h1.4 c0.4,0,0.7,0,0.7-0.7v-8.3c0-4.1,0-5.9-1.4-5.9h-1.7v-1.2c2.4-0.2,4.9-0.4,7.3-0.7L132.7,34L132.7,34L132.7,34z"/><path class="SiteLogo_blue__qWXi0" fill="#00529B" d="M160.4,38.1h-7.3c1.2-3.2,2.5-6.5,4-9.7L160.4,38.1z M161,39.7l2.4,7.1c0.3,0.8,0.2,1-0.6,1H161v1.3h10.1 l0.1-1.2l-1,0c-1.4,0-1.7-0.6-2.9-3.9c-2.2-6.2-6.7-18.1-6.7-19.6c0-0.8,0.8-0.9,0.8-1.4c0-0.2-0.1-0.5-0.4-0.5 c-0.6,0-2.5,0.5-3.2,0.7c-4.1,9.8-8.3,19.4-10,23.9c-0.2,0.5-0.5,0.9-1.1,0.9l-1.2,0l0,1.2h8.2v-1.3h-2.3c-0.7,0-1.1-0.1-1.1-0.9 c0-1.2,1.4-4.9,2.2-7.1H161z"/><path class="SiteLogo_blue__qWXi0" fill="#00529B" d="M177,34c2.2-1.6,4.1-2.9,6.3-2.9c3.2,0,4.9,1.9,4.9,5.6v5.5c0,4.7,0.2,5.7,1.3,5.7h1.5v1.2h-8.9v-1.2h1.1 c0.4,0,0.7,0,0.7-0.7v-8.5c0-2.8,0-5.1-3-5.1c-1.4,0-2.8,0.8-4,1.9v6.7c0,4.7,0.2,5.7,1.3,5.7h1.4v1.2h-9.1v-1.2h1.4 c0.4,0,0.7,0,0.7-0.7v-8.3c0-4.1,0-5.9-1.4-5.9h-1.7v-1.2c2.4-0.2,4.9-0.4,7.3-0.7L177,34L177,34L177,34z"/><path class="SiteLogo_blue__qWXi0" fill="#00529B" d="M204.2,45.5c-1.1,1-2.1,1.8-3.7,1.7c-3.9,0-4.7-4.2-4.7-7.4c0-3.3,1-7,4.9-7c1.3,0,2.4,0.4,3.4,1.1L204.2,45.5z M208.4,20.1c-2.4,0.4-4.8,0.9-7.2,1.1v1.2h1.7c1,0,1.3,1.1,1.3,7.5v2.3c-1.3-0.7-2.6-1.2-4.1-1.2c-5.6,0-8.6,4.7-8.6,9.9 c0,6.3,3.7,8.7,6.8,8.7c2.5,0,4.1-1.2,5.9-2.6v2.6c2.4-0.5,4.9-0.7,7.2-0.8v-1.2h-1.8c-1.2,0-1.2-1.8-1.2-6L208.4,20.1L208.4,20.1z"/><path class="SiteLogo_blue__qWXi0" fill="#00529B" d="M219.6,34.7c2-2.2,3.2-3.7,5.2-3.7c0.7,0,1.4,0.3,2,0.9l-0.5,2.6c-0.1,0.8-0.2,1.1-0.6,1.1 c-0.8,0-0.3-1.4-2.4-1.4c-1.5,0-2.7,0.9-3.7,2v6c0,4.7,0.2,5.7,1.3,5.7h2.1v1.2h-9.8v-1.2h1.5c0.4,0,0.7,0,0.7-0.6v-8.3 c0-4.1,0-5.9-1.4-5.9h-1.7v-1.2c2.4-0.2,4.9-0.4,7.3-0.7V34.7z"/><path class="SiteLogo_blue__qWXi0" fill="#00529B" d="M231.3,38.7c-0.1-2,0.7-6.3,3.3-6.3c2,0,3.1,2.8,3.7,4.4l-6.7,1.9L231.3,38.7z M233.8,29.2 c1.9-1.4,3.9-2.6,6-3.7c-0.3-0.4-1.2-1.3-1.7-1.3c-0.8,0-4.7,3.3-5.2,4.1L233.8,29.2z M242.3,45.7c-1.5,1.2-3.1,1.9-5,1.9 c-4.4,0-5.8-3.7-6-7.6l11.4-3.1c-1.5-3.3-3.6-5.9-7.4-5.9c-5.4,0-8.4,4.6-8.4,9.7c0,5.1,2.8,9,8.1,9c2.9,0,5.7-1.1,7.8-3.1 L242.3,45.7z"/><path class="SiteLogo_blue__qWXi0" fill="#00529B" d="M257.6,34.8c0,0.3-0.2,0.5-0.5,0.5c-0.4,0-0.5-0.3-0.6-0.6c-0.7-1.6-2.8-2.1-4.3-2.1c-1.5,0-3.7,0.7-3.7,2.6 c0,3.8,10.4,1.7,10.4,8.3c0,4.6-4.9,6.2-8.7,6.2c-1.7,0-3.5-0.2-5.1-0.8l-0.6-3.2c-0.1-0.5,0.1-0.9,0.6-0.9c0.5,0,0.6,0.3,0.7,0.9 c0.5,1.7,3,2.4,4.7,2.4c1.9,0,4.6-0.7,4.6-3.1c0-4-10.4-1.7-10.4-8.3c0-3.1,3-5.7,7.6-5.7c1.6,0,3.3,0.2,4.8,0.9L257.6,34.8z"/><g id="escudo"><path id="escudo-fondo" class="SiteLogo_blue__qWXi0 SiteLogo_escudo-fondo__mynak"  fill="#00529B" d="M60.6,9.5c0,0-1.5,1.5-1.4,4.8l0.1,21c0,0,0,5.6-6,6l-4.5,0.1c-0.2,0-2.5-0.1-4.5,2.1 c-2.1-2.1-4.3-2.1-4.5-2.1h-4.5c-6-0.3-6-5.9-6-5.9l-0.1-21c0-3.2-1.1-4.4-1.1-4.4l-1.2-1.5h8l1.2,1.5h8.1h8l1.2-1.5l8-0.1 L60.6,9.5z"/><path id="escudo-x-contorno" class="SiteLogo_blue__qWXi0" fill="#00529B" d="M53.4,8.6c0,0-8.2,10.2-9.1,11.4c-1-1.2-9.4-11.6-9.4-11.6h-7.8 c0,0,12.6,15.6,13.2,16.4c-0.6,0.9-10.4,13-10.4,13l0.2,0.4c1.3,2.7,4.3,3,4.4,3l0.4,0.1c0,0,8.3-10.3,9.3-11.4 c1,1.2,9.3,11.4,9.3,11.4l0.4-0.1c0.1,0,3.2-0.4,4.4-3l0.2-0.4c0,0-9.8-12.1-10.4-12.9c0.6-0.8,13.2-16.5,13.2-16.5l-7.8,0 L53.4,8.6z"/><path id="escudo-x-interna" class="SiteLogo_white__CuqqD" fill="#FFF" d="M34.5,9l9.7,12L53.9,9h6L47.2,24.8l10.5,13c-1.1,2.4-3.9,2.6-3.9,2.6l-9.6-11.8 l-9.6,11.9c0,0-2.8-0.3-3.9-2.6l10.5-13.1L28.5,9H34.5z"/><path id="escudo-contorno" class="SiteLogo_blue__qWXi0" fill="#00529B" d="M61.5,8.3l-8,0.1l-1.2,1.5h-8h-8.1l-1.2-1.5h-8l1.2,1.5c0,0,1.1,1.3,1.1,4.4l0.1,21 c0,0,0,5.6,6,5.9h4.5l0,0c0.2,0,2.4-0.1,4.5,2.1c2-2.1,4.3-2.1,4.5-2.1l0,0l4.5-0.1c6-0.4,6-6,6-6l-0.1-21 c-0.1-3.3,1.4-4.8,1.4-4.8L61.5,8.3z M34.6,9c0.3,0.3,1.2,1.5,1.2,1.5h8.4l8.4-0.1c0,0,0.9-1.2,1.2-1.5c0.5,0,4.4,0,6.2,0L60,9 c-0.2,0.3-1.5,1.8-1.5,4.9c0,0.1,0,0.3,0,0.4l0.1,21c0,0.2-0.1,4.9-5.3,5.3c-0.1,0-4.4,0.1-4.4,0.1h0.1c-0.1,0-2.4-0.1-4.6,1.8 c-2.2-1.9-4.4-1.8-4.5-1.8h0.1c0,0-4.4,0-4.4,0c-5.3-0.4-5.5-5.1-5.5-5.3l-0.1-21c0-0.1,0-0.1,0-0.1c0-3.1-1.1-4.6-1.3-4.8 c0,0-0.2-0.3-0.3-0.4C30.2,9,34.1,9,34.6,9z"/></g></svg>