<svg 
  height="512px" width="512px" 
  version="1.1" xmlns="http://www.w3.org/2000/svg" xmlns:xlink="http://www.w3.org/1999/xlink" 
  viewBox="0 0 64 64" xml:space="preserve" fill="#00891A">
  <g id="SVGRepo_bgCarrier" stroke-width="0"></g>
  <g id="SVGRepo_tracerCarrier" stroke-linecap="round" stroke-linejoin="round"></g>
  <g id="SVGRepo_iconCarrier">
    <g id="Layer_1"> 
      <g opacity="0.25"> 
        <g> <path fill="#404040" d="M32,11.9c-12.2,0-22,9.8-22,22s9.8,22,22,22c12.2,0,22-9.8,22-22S44.2,11.9,32,11.9z M14.1,24.7 c0.2,0.8-0.2,2.4-0.5,4.5c-0.4,2.5,1.6,2,1.6,4.4s1.8,3.4,1.5,3.6c-0.2,0.2-1.2,0.6,0.2,3.7c1.4,3.1,2.7,4,2.8,5.7 c0.2,1.7,2,4.2,2,4.2l0.1,0.5c-6-3.5-10-10-10-17.4C11.8,30.6,12.6,27.5,14.1,24.7z M24,51.8c-0.1-0.4,0.1-2.8,3-3.8 c2.9-1,2.4-2.2,3.3-3.5c0.9-1.2,1-2.2-0.6-2.5c-1.6-0.4-3.4-0.7-4.8-3c-1.5-2.3-3.5-2.4-4.6-3.1c-1.1-0.7-2-0.6-3.3-0.8 C15.5,35,16,31.2,16,30.4c0.1-0.8-0.8,0.3-1.5-0.3c-0.7-0.6,0.6-3.2,1.9-3.1c1.3,0.1,1,0.7,1.2,2.1c0.2,1.4,0.7,1.1,0.8,0.6 c0.1-0.4,0.2-2.3,0.6-2.9s0.5-2.2,2-2.1c1.4,0.1,1.4-1.3,2.5-0.9c1.1,0.4,1.8,0.1,1.1-0.5c-0.7-0.6-0.3-1.2,0.9-0.8 c1.2,0.4,1.2-1.7,1-2.7c-0.2-1.1-1.1-1.4-2.1-0.7c-1.1,0.7-1.9,0.4-1.3-0.7c0.5-1.1,2.7-0.2,4,0.4c1.3,0.5,1.6-1.4,0.9-2.4 c-0.7-1-0.8-0.5-2.8-0.4c-0.8,0.1-0.7-0.4-0.3-0.9c2.2-0.8,4.6-1.3,7.1-1.3c2.5,0,5,0.5,7.2,1.3c0.3,0.4,0.4,0.7,0.2,0.8 c-0.8,0.5-1.5,0.1-1.3,1.6c0.2,1.5,1.4,3.4,2.3,2.8c0.9-0.6,2.4,0.2,1.1,1c-1.3,0.8-1.7,0.8-2.3,1.3c-0.6,0.5-0.3,0.3,0.3,1 c0.6,0.7,0.5,0.8-0.3,1.2c-0.9,0.3-1.4,1.1-0.5,2c0.8,0.9,1.4,1.6,2.3,0c0.9-1.6,1.1-3,1.9-2.5c0.8,0.4,1.7,1.7,2.3,1 c0.6-0.7,0.5-1.2,1.3-0.7c0.8,0.5,3.7,0.6,1.8,2c-2,1.4-1.6,2.1-2.5,1.9c-0.9-0.2-5.1-1.1-6.1,1.3c-1,2.3-4.5,4.2-2.6,6.5 c1.8,2.3,1.4,3.9,4,4.3c2.6,0.3,3.9-0.8,4.6,0.4s0.1,1.3,0.2,3.2c0,0.9,0.5,2.6,1,4.1c-3.7,3.8-8.8,6.2-14.5,6.2 c-2.9,0-5.6-0.6-8.1-1.7C24,52.1,24,51.9,24,51.8z"></path> </g> 
        <g> <path fill="#404040" d="M32.1,18.2c0.6-0.4,0.7,0.1,1.2-1.6c0.5-1.8-2.1-2-3.3-1.8c-1.2,0.2-0.7,0.7-0.7,0.7 c0.4,0.7,0.7,3.1-0.1,3.9c-0.7,0.9,0.6,1.1,1.2,0.2C31.1,18.9,31.4,18.6,32.1,18.2z"></path> </g> 
      </g> 
      <g> <g> <path fill="#00891A" d="M32,10.1c-12.2,0-22,9.8-22,22s9.8,22,22,22c12.2,0,22-9.8,22-22S44.2,10.1,32,10.1z M14.1,22.9 c0.2,0.8-0.2,2.4-0.5,4.5c-0.4,2.5,1.6,2,1.6,4.4s1.8,3.4,1.5,3.6c-0.2,0.2-1.2,0.6,0.2,3.7c1.4,3.1,2.7,4,2.8,5.7 c0.2,1.7,2,4.2,2,4.2l0.1,0.5c-6-3.5-10-10-10-17.4C11.8,28.8,12.6,25.7,14.1,22.9z M24,50c-0.1-0.4,0.1-2.8,3-3.8 c2.9-1,2.4-2.2,3.3-3.5c0.9-1.2,1-2.2-0.6-2.5c-1.6-0.4-3.4-0.7-4.8-3c-1.5-2.3-3.5-2.4-4.6-3.1c-1.1-0.7-2-0.6-3.3-0.8 c-1.3-0.2-0.9-3.9-0.8-4.7c0.1-0.8-0.8,0.3-1.5-0.3c-0.7-0.6,0.6-3.2,1.9-3.1c1.3,0.1,1,0.7,1.2,2.1c0.2,1.4,0.7,1.1,0.8,0.6 c0.1-0.4,0.2-2.3,0.6-2.9c0.4-0.6,0.5-2.2,2-2.1c1.4,0.1,1.4-1.3,2.5-0.9c1.1,0.4,1.8,0.1,1.1-0.5c-0.7-0.6-0.3-1.2,0.9-0.8 c1.2,0.4,1.2-1.7,1-2.7c-0.2-1.1-1.1-1.4-2.1-0.7c-1.1,0.7-1.9,0.4-1.3-0.7c0.5-1.1,2.7-0.2,4,0.4c1.3,0.5,1.6-1.4,0.9-2.4 c-0.7-1-0.8-0.5-2.8-0.4c-0.8,0.1-0.7-0.4-0.3-0.9c2.2-0.8,4.6-1.3,7.1-1.3c2.5,0,5,0.5,7.2,1.3c0.3,0.4,0.4,0.7,0.2,0.8 c-0.8,0.5-1.5,0.1-1.3,1.6c0.2,1.5,1.4,3.4,2.3,2.8c0.9-0.6,2.4,0.2,1.1,1c-1.3,0.8-1.7,0.8-2.3,1.3c-0.6,0.5-0.3,0.3,0.3,1 c0.6,0.7,0.5,0.8-0.3,1.2c-0.9,0.3-1.4,1.1-0.5,2c0.8,0.9,1.4,1.6,2.3,0c0.9-1.6,1.1-3,1.9-2.5c0.8,0.4,1.7,1.7,2.3,1 c0.6-0.7,0.5-1.2,1.3-0.7c0.8,0.5,3.7,0.6,1.8,2c-2,1.4-1.6,2.1-2.5,1.9c-0.9-0.2-5.1-1.1-6.1,1.3c-1,2.3-4.5,4.2-2.6,6.5 c1.8,2.3,1.4,3.9,4,4.3c2.6,0.3,3.9-0.8,4.6,0.4c0.7,1.2,0.1,1.3,0.2,3.2c0,0.9,0.5,2.6,1,4.1c-3.7,3.8-8.8,6.2-14.5,6.2 c-2.9,0-5.6-0.6-8.1-1.7C24,50.3,24,50.1,24,50z"></path> </g> 
        <g> <path fill="#00891A" d="M32.1,16.4c0.6-0.4,0.7,0.1,1.2-1.6c0.5-1.8-2.1-2-3.3-1.8c-1.2,0.2-0.7,0.7-0.7,0.7 c0.4,0.7,0.7,3.1-0.1,3.9c-0.7,0.9,0.6,1.1,1.2,0.2S31.4,16.8,32.1,16.4z"></path> </g> 
      </g> 
    </g> 
    <g id="Layer_2">
      <path id="circle" d="M12,38 A22.5,20 0 1,1 52,38" fill="transparent"/>
      <text xmlns="http://www.w3.org/2000/svg" font-size="12" fill="#00891A" font-weight="bold" font-family="Verdana"> 
        <textPath href="#circle" text-anchor="middle" startOffset="50%">CLIMINET</textPath> </text>
      <!-- Arrow(s) -->
      <svg 
        height="55px" width="55px" 
        version="1.1" xmlns="http://www.w3.org/2000/svg" xmlns:xlink="http://www.w3.org/1999/xlink" 
        viewBox="-368 -224 1024 1024" xml:space="preserve" fill="#FF0000">
        <g id="SVGRepo_bgCarrier" stroke-width="0"></g>
        <g id="SVGRepo_tracerCarrier" stroke-linecap="round" stroke-linejoin="round"></g>
        <g id="SVGRepo_iconCarrier" transform="rotate(12)"> 
          <g> <path fill="#FF0000" d="M437.02,74.98C388.667,26.629,324.38,0,256,0C197.67,0,142.329,19.39,97.306,55.097l3.401-11.623 c1.309-4.474-1.257-9.162-5.73-10.471c-4.476-1.308-9.162,1.257-10.471,5.73l-11.64,39.785c-0.006,0.02-0.011,0.039-0.017,0.06 c-0.089,0.305-0.155,0.613-0.209,0.924c-0.016,0.093-0.027,0.187-0.041,0.28c-0.032,0.224-0.054,0.449-0.066,0.674 c-0.006,0.102-0.012,0.204-0.015,0.306c-0.006,0.25,0.001,0.498,0.018,0.747c0.004,0.064,0.003,0.128,0.009,0.192 c0.028,0.314,0.074,0.627,0.137,0.936c0.012,0.061,0.03,0.119,0.044,0.179c0.056,0.251,0.125,0.5,0.205,0.745 c0.027,0.082,0.056,0.162,0.086,0.243c0.082,0.23,0.176,0.456,0.279,0.679c0.034,0.072,0.064,0.144,0.1,0.215 c0.129,0.26,0.271,0.515,0.429,0.763c0.016,0.026,0.029,0.053,0.046,0.079c0.178,0.272,0.372,0.537,0.585,0.792 c0.086,0.107,0.15,0.165,0.208,0.231c0.106,0.117,0.205,0.239,0.317,0.351c0.025,0.025,0.053,0.046,0.079,0.071 c0.088,0.086,0.181,0.164,0.272,0.246c0.135,0.12,0.269,0.24,0.41,0.35c0.089,0.07,0.18,0.134,0.271,0.199 c0.154,0.111,0.309,0.219,0.468,0.318c0.087,0.054,0.174,0.105,0.263,0.155c0.171,0.098,0.343,0.191,0.519,0.277 c0.088,0.043,0.177,0.083,0.267,0.124c0.18,0.08,0.362,0.152,0.547,0.219c0.093,0.034,0.186,0.068,0.28,0.098 c0.185,0.06,0.371,0.11,0.559,0.156c0.098,0.025,0.195,0.051,0.294,0.072c0.195,0.041,0.392,0.071,0.589,0.098 c0.093,0.012,0.185,0.03,0.279,0.041c0.273,0.028,0.549,0.044,0.824,0.045c0.358,0,0.639-0.017,0.919-0.046 c0.055-0.003,41.319-4.565,41.319-4.565c4.633-0.512,7.973-4.683,7.461-9.316c-0.513-4.633-4.689-7.966-9.316-7.461l-15.156,1.676 c93.813-75.57,231.882-69.83,318.956,17.245C470.248,132.08,495.121,192.129,495.121,256c0,4.661,3.779,8.44,8.44,8.44 S512,260.661,512,256C512,187.619,485.372,123.333,437.02,74.98z"></path> </g> 
          <path d="M437.02,74.98C388.668,26.629,324.38,0,256,0C197.671,0,142.329,19.39,97.306,55.097l3.401-11.623 c1.309-4.474-1.257-9.162-5.73-10.471c-4.476-1.308-9.162,1.257-10.471,5.73l-11.64,39.785c-0.006,0.02-0.011,0.039-0.017,0.06l0,0 v0.001c-0.089,0.304-0.155,0.612-0.209,0.923c-0.016,0.093-0.027,0.187-0.041,0.28c-0.032,0.224-0.054,0.449-0.066,0.674 c-0.006,0.102-0.012,0.204-0.015,0.306c-0.006,0.25,0.001,0.498,0.018,0.747c0.004,0.064,0.003,0.128,0.009,0.192 c0.028,0.314,0.074,0.627,0.137,0.936c0.012,0.061,0.03,0.119,0.044,0.179c0.056,0.251,0.125,0.5,0.205,0.745 c0.027,0.082,0.056,0.162,0.086,0.243c0.082,0.23,0.176,0.456,0.279,0.679c0.034,0.072,0.064,0.144,0.1,0.215 c0.129,0.26,0.271,0.515,0.429,0.763c0.016,0.026,0.029,0.053,0.046,0.079c0.178,0.272,0.372,0.537,0.585,0.792 c0.01,0.012,0.018,0.027,0.029,0.039c0.056,0.068,0.122,0.126,0.18,0.191c0.106,0.117,0.205,0.239,0.317,0.351 c0.025,0.025,0.053,0.046,0.079,0.071c0.088,0.086,0.181,0.164,0.272,0.246c0.135,0.12,0.269,0.24,0.41,0.35 c0.089,0.07,0.18,0.134,0.271,0.199c0.154,0.111,0.309,0.219,0.468,0.318c0.087,0.054,0.174,0.105,0.263,0.155 c0.171,0.098,0.343,0.191,0.519,0.277c0.088,0.043,0.177,0.083,0.267,0.124c0.18,0.08,0.362,0.152,0.547,0.219 c0.093,0.034,0.186,0.068,0.28,0.098c0.185,0.06,0.371,0.11,0.559,0.156c0.098,0.025,0.195,0.051,0.294,0.072 c0.195,0.041,0.392,0.071,0.589,0.098c0.093,0.012,0.185,0.03,0.279,0.041c0.273,0.028,0.549,0.044,0.824,0.045 c0.016,0,0.03,0.002,0.045,0.002c0.01,0,0.02-0.001,0.03-0.001c0.281-0.001,0.563-0.018,0.844-0.046 c0.018-0.002,0.036-0.001,0.055-0.003l41.264-4.563c4.633-0.512,7.973-4.683,7.461-9.316c-0.513-4.633-4.689-7.966-9.316-7.461 l-15.156,1.676c93.812-75.57,231.881-69.83,318.955,17.245C470.248,132.08,495.121,192.129,495.121,256 c0,4.661,3.779,8.44,8.44,8.44S512,260.661,512,256C512,187.619,485.372,123.333,437.02,74.98z"></path> 
        </g>
      </svg>
      <svg 
        height="55px" width="55px" 
        version="1.1" xmlns="http://www.w3.org/2000/svg" xmlns:xlink="http://www.w3.org/1999/xlink" 
        viewBox="-1700 -610 2048 2048" xml:space="preserve" fill="#FF0000">
        <g id="SVGRepo_bgCarrier" stroke-width="0"></g>
        <g id="SVGRepo_tracerCarrier" stroke-linecap="round" stroke-linejoin="round"></g>
        <g id="SVGRepo_iconCarrier" transform="rotate(72)"> 
          <g> <path fill="#FF0000" d="M437.02,74.98C388.667,26.629,324.38,0,256,0C197.67,0,142.329,19.39,97.306,55.097l3.401-11.623 c1.309-4.474-1.257-9.162-5.73-10.471c-4.476-1.308-9.162,1.257-10.471,5.73l-11.64,39.785c-0.006,0.02-0.011,0.039-0.017,0.06 c-0.089,0.305-0.155,0.613-0.209,0.924c-0.016,0.093-0.027,0.187-0.041,0.28c-0.032,0.224-0.054,0.449-0.066,0.674 c-0.006,0.102-0.012,0.204-0.015,0.306c-0.006,0.25,0.001,0.498,0.018,0.747c0.004,0.064,0.003,0.128,0.009,0.192 c0.028,0.314,0.074,0.627,0.137,0.936c0.012,0.061,0.03,0.119,0.044,0.179c0.056,0.251,0.125,0.5,0.205,0.745 c0.027,0.082,0.056,0.162,0.086,0.243c0.082,0.23,0.176,0.456,0.279,0.679c0.034,0.072,0.064,0.144,0.1,0.215 c0.129,0.26,0.271,0.515,0.429,0.763c0.016,0.026,0.029,0.053,0.046,0.079c0.178,0.272,0.372,0.537,0.585,0.792 c0.086,0.107,0.15,0.165,0.208,0.231c0.106,0.117,0.205,0.239,0.317,0.351c0.025,0.025,0.053,0.046,0.079,0.071 c0.088,0.086,0.181,0.164,0.272,0.246c0.135,0.12,0.269,0.24,0.41,0.35c0.089,0.07,0.18,0.134,0.271,0.199 c0.154,0.111,0.309,0.219,0.468,0.318c0.087,0.054,0.174,0.105,0.263,0.155c0.171,0.098,0.343,0.191,0.519,0.277 c0.088,0.043,0.177,0.083,0.267,0.124c0.18,0.08,0.362,0.152,0.547,0.219c0.093,0.034,0.186,0.068,0.28,0.098 c0.185,0.06,0.371,0.11,0.559,0.156c0.098,0.025,0.195,0.051,0.294,0.072c0.195,0.041,0.392,0.071,0.589,0.098 c0.093,0.012,0.185,0.03,0.279,0.041c0.273,0.028,0.549,0.044,0.824,0.045c0.358,0,0.639-0.017,0.919-0.046 c0.055-0.003,41.319-4.565,41.319-4.565c4.633-0.512,7.973-4.683,7.461-9.316c-0.513-4.633-4.689-7.966-9.316-7.461l-15.156,1.676 c93.813-75.57,231.882-69.83,318.956,17.245C470.248,132.08,495.121,192.129,495.121,256c0,4.661,3.779,8.44,8.44,8.44 S512,260.661,512,256C512,187.619,485.372,123.333,437.02,74.98z"></path> </g> 
          <path d="M437.02,74.98C388.668,26.629,324.38,0,256,0C197.671,0,142.329,19.39,97.306,55.097l3.401-11.623 c1.309-4.474-1.257-9.162-5.73-10.471c-4.476-1.308-9.162,1.257-10.471,5.73l-11.64,39.785c-0.006,0.02-0.011,0.039-0.017,0.06l0,0 v0.001c-0.089,0.304-0.155,0.612-0.209,0.923c-0.016,0.093-0.027,0.187-0.041,0.28c-0.032,0.224-0.054,0.449-0.066,0.674 c-0.006,0.102-0.012,0.204-0.015,0.306c-0.006,0.25,0.001,0.498,0.018,0.747c0.004,0.064,0.003,0.128,0.009,0.192 c0.028,0.314,0.074,0.627,0.137,0.936c0.012,0.061,0.03,0.119,0.044,0.179c0.056,0.251,0.125,0.5,0.205,0.745 c0.027,0.082,0.056,0.162,0.086,0.243c0.082,0.23,0.176,0.456,0.279,0.679c0.034,0.072,0.064,0.144,0.1,0.215 c0.129,0.26,0.271,0.515,0.429,0.763c0.016,0.026,0.029,0.053,0.046,0.079c0.178,0.272,0.372,0.537,0.585,0.792 c0.01,0.012,0.018,0.027,0.029,0.039c0.056,0.068,0.122,0.126,0.18,0.191c0.106,0.117,0.205,0.239,0.317,0.351 c0.025,0.025,0.053,0.046,0.079,0.071c0.088,0.086,0.181,0.164,0.272,0.246c0.135,0.12,0.269,0.24,0.41,0.35 c0.089,0.07,0.18,0.134,0.271,0.199c0.154,0.111,0.309,0.219,0.468,0.318c0.087,0.054,0.174,0.105,0.263,0.155 c0.171,0.098,0.343,0.191,0.519,0.277c0.088,0.043,0.177,0.083,0.267,0.124c0.18,0.08,0.362,0.152,0.547,0.219 c0.093,0.034,0.186,0.068,0.28,0.098c0.185,0.06,0.371,0.11,0.559,0.156c0.098,0.025,0.195,0.051,0.294,0.072 c0.195,0.041,0.392,0.071,0.589,0.098c0.093,0.012,0.185,0.03,0.279,0.041c0.273,0.028,0.549,0.044,0.824,0.045 c0.016,0,0.03,0.002,0.045,0.002c0.01,0,0.02-0.001,0.03-0.001c0.281-0.001,0.563-0.018,0.844-0.046 c0.018-0.002,0.036-0.001,0.055-0.003l41.264-4.563c4.633-0.512,7.973-4.683,7.461-9.316c-0.513-4.633-4.689-7.966-9.316-7.461 l-15.156,1.676c93.812-75.57,231.881-69.83,318.955,17.245C470.248,132.08,495.121,192.129,495.121,256 c0,4.661,3.779,8.44,8.44,8.44S512,260.661,512,256C512,187.619,485.372,123.333,437.02,74.98z"></path> 
        </g>
      </svg>
      <svg 
        height="55px" width="55px" 
        version="1.1" xmlns="http://www.w3.org/2000/svg" xmlns:xlink="http://www.w3.org/1999/xlink" 
        viewBox="-840 -392 1152 1152" xml:space="preserve" fill="#FF0000">
        <g id="SVGRepo_bgCarrier" stroke-width="0"></g>
        <g id="SVGRepo_tracerCarrier" stroke-linecap="round" stroke-linejoin="round"></g>
        <g id="SVGRepo_iconCarrier" transform="scale(-1, 1) rotate(32)"> 
          <g> <path fill="#FF0000" d="M437.02,74.98C388.667,26.629,324.38,0,256,0C197.67,0,142.329,19.39,97.306,55.097l3.401-11.623 c1.309-4.474-1.257-9.162-5.73-10.471c-4.476-1.308-9.162,1.257-10.471,5.73l-11.64,39.785c-0.006,0.02-0.011,0.039-0.017,0.06 c-0.089,0.305-0.155,0.613-0.209,0.924c-0.016,0.093-0.027,0.187-0.041,0.28c-0.032,0.224-0.054,0.449-0.066,0.674 c-0.006,0.102-0.012,0.204-0.015,0.306c-0.006,0.25,0.001,0.498,0.018,0.747c0.004,0.064,0.003,0.128,0.009,0.192 c0.028,0.314,0.074,0.627,0.137,0.936c0.012,0.061,0.03,0.119,0.044,0.179c0.056,0.251,0.125,0.5,0.205,0.745 c0.027,0.082,0.056,0.162,0.086,0.243c0.082,0.23,0.176,0.456,0.279,0.679c0.034,0.072,0.064,0.144,0.1,0.215 c0.129,0.26,0.271,0.515,0.429,0.763c0.016,0.026,0.029,0.053,0.046,0.079c0.178,0.272,0.372,0.537,0.585,0.792 c0.086,0.107,0.15,0.165,0.208,0.231c0.106,0.117,0.205,0.239,0.317,0.351c0.025,0.025,0.053,0.046,0.079,0.071 c0.088,0.086,0.181,0.164,0.272,0.246c0.135,0.12,0.269,0.24,0.41,0.35c0.089,0.07,0.18,0.134,0.271,0.199 c0.154,0.111,0.309,0.219,0.468,0.318c0.087,0.054,0.174,0.105,0.263,0.155c0.171,0.098,0.343,0.191,0.519,0.277 c0.088,0.043,0.177,0.083,0.267,0.124c0.18,0.08,0.362,0.152,0.547,0.219c0.093,0.034,0.186,0.068,0.28,0.098 c0.185,0.06,0.371,0.11,0.559,0.156c0.098,0.025,0.195,0.051,0.294,0.072c0.195,0.041,0.392,0.071,0.589,0.098 c0.093,0.012,0.185,0.03,0.279,0.041c0.273,0.028,0.549,0.044,0.824,0.045c0.358,0,0.639-0.017,0.919-0.046 c0.055-0.003,41.319-4.565,41.319-4.565c4.633-0.512,7.973-4.683,7.461-9.316c-0.513-4.633-4.689-7.966-9.316-7.461l-15.156,1.676 c93.813-75.57,231.882-69.83,318.956,17.245C470.248,132.08,495.121,192.129,495.121,256c0,4.661,3.779,8.44,8.44,8.44 S512,260.661,512,256C512,187.619,485.372,123.333,437.02,74.98z"></path> </g> 
          <path d="M437.02,74.98C388.668,26.629,324.38,0,256,0C197.671,0,142.329,19.39,97.306,55.097l3.401-11.623 c1.309-4.474-1.257-9.162-5.73-10.471c-4.476-1.308-9.162,1.257-10.471,5.73l-11.64,39.785c-0.006,0.02-0.011,0.039-0.017,0.06l0,0 v0.001c-0.089,0.304-0.155,0.612-0.209,0.923c-0.016,0.093-0.027,0.187-0.041,0.28c-0.032,0.224-0.054,0.449-0.066,0.674 c-0.006,0.102-0.012,0.204-0.015,0.306c-0.006,0.25,0.001,0.498,0.018,0.747c0.004,0.064,0.003,0.128,0.009,0.192 c0.028,0.314,0.074,0.627,0.137,0.936c0.012,0.061,0.03,0.119,0.044,0.179c0.056,0.251,0.125,0.5,0.205,0.745 c0.027,0.082,0.056,0.162,0.086,0.243c0.082,0.23,0.176,0.456,0.279,0.679c0.034,0.072,0.064,0.144,0.1,0.215 c0.129,0.26,0.271,0.515,0.429,0.763c0.016,0.026,0.029,0.053,0.046,0.079c0.178,0.272,0.372,0.537,0.585,0.792 c0.01,0.012,0.018,0.027,0.029,0.039c0.056,0.068,0.122,0.126,0.18,0.191c0.106,0.117,0.205,0.239,0.317,0.351 c0.025,0.025,0.053,0.046,0.079,0.071c0.088,0.086,0.181,0.164,0.272,0.246c0.135,0.12,0.269,0.24,0.41,0.35 c0.089,0.07,0.18,0.134,0.271,0.199c0.154,0.111,0.309,0.219,0.468,0.318c0.087,0.054,0.174,0.105,0.263,0.155 c0.171,0.098,0.343,0.191,0.519,0.277c0.088,0.043,0.177,0.083,0.267,0.124c0.18,0.08,0.362,0.152,0.547,0.219 c0.093,0.034,0.186,0.068,0.28,0.098c0.185,0.06,0.371,0.11,0.559,0.156c0.098,0.025,0.195,0.051,0.294,0.072 c0.195,0.041,0.392,0.071,0.589,0.098c0.093,0.012,0.185,0.03,0.279,0.041c0.273,0.028,0.549,0.044,0.824,0.045 c0.016,0,0.03,0.002,0.045,0.002c0.01,0,0.02-0.001,0.03-0.001c0.281-0.001,0.563-0.018,0.844-0.046 c0.018-0.002,0.036-0.001,0.055-0.003l41.264-4.563c4.633-0.512,7.973-4.683,7.461-9.316c-0.513-4.633-4.689-7.966-9.316-7.461 l-15.156,1.676c93.812-75.57,231.881-69.83,318.955,17.245C470.248,132.08,495.121,192.129,495.121,256 c0,4.661,3.779,8.44,8.44,8.44S512,260.661,512,256C512,187.619,485.372,123.333,437.02,74.98z"></path> 
        </g>
      </svg>
      <svg 
        height="55px" width="55px" 
        version="1.1" xmlns="http://www.w3.org/2000/svg" xmlns:xlink="http://www.w3.org/1999/xlink" 
        viewBox="-656 -704 1920 1920" xml:space="preserve" fill="#FF0000">
        <g id="SVGRepo_bgCarrier" stroke-width="0"></g>
        <g id="SVGRepo_tracerCarrier" stroke-linecap="round" stroke-linejoin="round"></g>
        <g id="SVGRepo_iconCarrier" transform="rotate(60)"> 
          <g> <path fill="#FF0000" d="M437.02,74.98C388.667,26.629,324.38,0,256,0C197.67,0,142.329,19.39,97.306,55.097l3.401-11.623 c1.309-4.474-1.257-9.162-5.73-10.471c-4.476-1.308-9.162,1.257-10.471,5.73l-11.64,39.785c-0.006,0.02-0.011,0.039-0.017,0.06 c-0.089,0.305-0.155,0.613-0.209,0.924c-0.016,0.093-0.027,0.187-0.041,0.28c-0.032,0.224-0.054,0.449-0.066,0.674 c-0.006,0.102-0.012,0.204-0.015,0.306c-0.006,0.25,0.001,0.498,0.018,0.747c0.004,0.064,0.003,0.128,0.009,0.192 c0.028,0.314,0.074,0.627,0.137,0.936c0.012,0.061,0.03,0.119,0.044,0.179c0.056,0.251,0.125,0.5,0.205,0.745 c0.027,0.082,0.056,0.162,0.086,0.243c0.082,0.23,0.176,0.456,0.279,0.679c0.034,0.072,0.064,0.144,0.1,0.215 c0.129,0.26,0.271,0.515,0.429,0.763c0.016,0.026,0.029,0.053,0.046,0.079c0.178,0.272,0.372,0.537,0.585,0.792 c0.086,0.107,0.15,0.165,0.208,0.231c0.106,0.117,0.205,0.239,0.317,0.351c0.025,0.025,0.053,0.046,0.079,0.071 c0.088,0.086,0.181,0.164,0.272,0.246c0.135,0.12,0.269,0.24,0.41,0.35c0.089,0.07,0.18,0.134,0.271,0.199 c0.154,0.111,0.309,0.219,0.468,0.318c0.087,0.054,0.174,0.105,0.263,0.155c0.171,0.098,0.343,0.191,0.519,0.277 c0.088,0.043,0.177,0.083,0.267,0.124c0.18,0.08,0.362,0.152,0.547,0.219c0.093,0.034,0.186,0.068,0.28,0.098 c0.185,0.06,0.371,0.11,0.559,0.156c0.098,0.025,0.195,0.051,0.294,0.072c0.195,0.041,0.392,0.071,0.589,0.098 c0.093,0.012,0.185,0.03,0.279,0.041c0.273,0.028,0.549,0.044,0.824,0.045c0.358,0,0.639-0.017,0.919-0.046 c0.055-0.003,41.319-4.565,41.319-4.565c4.633-0.512,7.973-4.683,7.461-9.316c-0.513-4.633-4.689-7.966-9.316-7.461l-15.156,1.676 c93.813-75.57,231.882-69.83,318.956,17.245C470.248,132.08,495.121,192.129,495.121,256c0,4.661,3.779,8.44,8.44,8.44 S512,260.661,512,256C512,187.619,485.372,123.333,437.02,74.98z"></path> </g> 
          <path d="M437.02,74.98C388.668,26.629,324.38,0,256,0C197.671,0,142.329,19.39,97.306,55.097l3.401-11.623 c1.309-4.474-1.257-9.162-5.73-10.471c-4.476-1.308-9.162,1.257-10.471,5.73l-11.64,39.785c-0.006,0.02-0.011,0.039-0.017,0.06l0,0 v0.001c-0.089,0.304-0.155,0.612-0.209,0.923c-0.016,0.093-0.027,0.187-0.041,0.28c-0.032,0.224-0.054,0.449-0.066,0.674 c-0.006,0.102-0.012,0.204-0.015,0.306c-0.006,0.25,0.001,0.498,0.018,0.747c0.004,0.064,0.003,0.128,0.009,0.192 c0.028,0.314,0.074,0.627,0.137,0.936c0.012,0.061,0.03,0.119,0.044,0.179c0.056,0.251,0.125,0.5,0.205,0.745 c0.027,0.082,0.056,0.162,0.086,0.243c0.082,0.23,0.176,0.456,0.279,0.679c0.034,0.072,0.064,0.144,0.1,0.215 c0.129,0.26,0.271,0.515,0.429,0.763c0.016,0.026,0.029,0.053,0.046,0.079c0.178,0.272,0.372,0.537,0.585,0.792 c0.01,0.012,0.018,0.027,0.029,0.039c0.056,0.068,0.122,0.126,0.18,0.191c0.106,0.117,0.205,0.239,0.317,0.351 c0.025,0.025,0.053,0.046,0.079,0.071c0.088,0.086,0.181,0.164,0.272,0.246c0.135,0.12,0.269,0.24,0.41,0.35 c0.089,0.07,0.18,0.134,0.271,0.199c0.154,0.111,0.309,0.219,0.468,0.318c0.087,0.054,0.174,0.105,0.263,0.155 c0.171,0.098,0.343,0.191,0.519,0.277c0.088,0.043,0.177,0.083,0.267,0.124c0.18,0.08,0.362,0.152,0.547,0.219 c0.093,0.034,0.186,0.068,0.28,0.098c0.185,0.06,0.371,0.11,0.559,0.156c0.098,0.025,0.195,0.051,0.294,0.072 c0.195,0.041,0.392,0.071,0.589,0.098c0.093,0.012,0.185,0.03,0.279,0.041c0.273,0.028,0.549,0.044,0.824,0.045 c0.016,0,0.03,0.002,0.045,0.002c0.01,0,0.02-0.001,0.03-0.001c0.281-0.001,0.563-0.018,0.844-0.046 c0.018-0.002,0.036-0.001,0.055-0.003l41.264-4.563c4.633-0.512,7.973-4.683,7.461-9.316c-0.513-4.633-4.689-7.966-9.316-7.461 l-15.156,1.676c93.812-75.57,231.881-69.83,318.955,17.245C470.248,132.08,495.121,192.129,495.121,256 c0,4.661,3.779,8.44,8.44,8.44S512,260.661,512,256C512,187.619,485.372,123.333,437.02,74.98z"></path> 
        </g>
      </svg>
    </g> 
    <g id="LAYER_3">
      <!-- Earthquake -->
      <svg 
        viewBox="0 0 72 72" x="0.75%" y="82.5%" width="20%" height="20%"
        id="earthquake" xmlns="http://www.w3.org/2000/svg" fill="#1D1F21">
        <g id="SVGRepo_bgCarrier" stroke-width="0"></g>
        <g id="SVGRepo_tracerCarrier" stroke-linecap="round" stroke-linejoin="round"></g>
        <g id="SVGRepo_iconCarrier">
          <g id="Colors"> 
            <polygon fill="#9B9B9A" points="36.641 23.012 40.117 26.752 37.922 30.756 37.936 36.303 22.978 36.303 22.592 32.459 21.554 30.277 22.063 27.49 21.298 20.899 33.33 11.134 40.153 14.303 36.641 23.012"></polygon>
            <polygon fill="#3F3F3F" points="36.641 23.012 40.117 26.752 37.922 30.756 37.936 36.303 47.788 36.303 47.633 32.761 46.005 28.481 46.823 24.602 46.104 16.936 40.153 14.303 36.641 23.012"></polygon> 
            <path fill="#EA5A47" d="M19.2578,58.568c0-9.1562,6.9838-16.4253,16.6672-16.5788,9.112-.1445,16.6422,6.2323,16.6671,16.5788Z"></path> 
            <polygon fill="#FFFFFF" points="32.584 30.153 27.436 30.153 26.919 24.245 32.067 24.245 32.584 30.153"></polygon> </g>
          <g id="Lines"> 
            <path fill="none" stroke="#1D1F21" stroke-linecap="round" stroke-linejoin="round" stroke-width="2" d="M29.7387,57.9618a6.1863,6.1863,0,0,1,12.3726,0"></path> 
            <path fill="none" stroke="#1D1F21" stroke-linecap="round" stroke-linejoin="round" stroke-width="2" d="M54.5875,43.7779c3.219,3.0927,5.3153,8.6178,5.3153,13.6429"></path> 
            <path fill="none" stroke="#1D1F21" stroke-linecap="round" stroke-linejoin="round" stroke-width="2" d="M11.9472,57.4208a21.1963,21.1963,0,0,1,5.64-13.6346"></path> 
            <polyline fill="none" stroke="#1D1F21" stroke-linecap="round" stroke-linejoin="round" stroke-width="2" points="46.104 16.936 46.823 24.602 46.005 28.481 47.633 32.761 47.788 36.303"></polyline> 
            <polyline fill="none" stroke="#1D1F21" stroke-linecap="round" stroke-linejoin="round" stroke-width="2" points="22.9 35.531 22.592 32.459 21.554 30.277 22.063 27.49 21.298 20.899"></polyline> 
            <polyline fill="none" stroke="#1D1F21" stroke-linecap="round" stroke-linejoin="round" stroke-width="2" points="18.743 22.984 33.33 11.134 49.646 18.544"></polyline> 
            <line x1="25.7178" x2="25.0792" y1="17.1835" y2="12.3992" fill="none" stroke="#1D1F21" stroke-linecap="round" stroke-miterlimit="10" stroke-width="2"></line> 
            <polyline fill="none" stroke="#1D1F21" stroke-linecap="round" stroke-linejoin="round" stroke-width="2" points="26.919 24.245 32.067 24.245 32.584 30.153"></polyline>
            <polyline fill="none" stroke="#1D1F21" stroke-linecap="round" stroke-linejoin="round" stroke-width="2" points="38.164 19.237 36.641 23.012 40.117 26.724 37.93 30.758 37.937 36.214"></polyline> 
            <line x1="12.3198" x2="32.675" y1="36.3028" y2="36.3028" fill="none" stroke="#1D1F21" stroke-linecap="round" stroke-linejoin="round" stroke-width="2"></line> 
            <line x1="42.8398" x2="59.6802" y1="36.3028" y2="36.3028" fill="none" stroke="#1D1F21" stroke-linecap="round" stroke-linejoin="round" stroke-width="2"></line>
            <path fill="none" stroke="#1D1F21" stroke-linecap="round" stroke-linejoin="round" stroke-width="2" d="M40.9783,42.615A15.8563,15.8563,0,0,1,52.5921,57.9081"></path> 
            <path fill="none" stroke="#1D1F21" stroke-linecap="round" stroke-linejoin="round" stroke-width="2" d="M19.2578,57.9081c0-7.3088,5.61-14.2373,13.7462-15.6474"></path> </g> </g></svg>
      <!-- Hurricane/Tornado -->
      <svg 
        viewBox="0 0 48 48" x="24.25%" y="85.40%" width="20%" height="20%"  
        version="1.1" xml:space="preserve" xmlns="http://www.w3.org/2000/svg" xmlns:xlink="http://www.w3.org/1999/xlink" 
        fill="#1D1F21">
        <g id="SVGRepo_bgCarrier" stroke-width="0"></g>
        <g id="SVGRepo_tracerCarrier" stroke-linecap="round" stroke-linejoin="round"></g>
        <g id="SVGRepo_iconCarrier"> 
          <g id="LAYER_1"></g> 
            <path d="M24,13H8c-0.6,0-1,0.4-1,1s0.4,1,1,1h16c0.6,0,1-0.4,1-1S24.6,13,24,13z" fill="#2197F3"></path> 
            <path d="M19,18c0-0.6-0.4-1-1-1H6c-0.6,0-1,0.4-1,1s0.4,1,1,1h12C18.6,19,19,18.6,19,18z" fill="#2197F3"></path> 
            <path d="M21,21H9c-0.6,0-1,0.4-1,1s0.4,1,1,1h12c0.6,0,1-0.4,1-1S21.6,21,21,21z" fill="#2197F3"></path>
            <path d="M20,25h-8c-0.6,0-1,0.4-1,1s0.4,1,1,1h8c0.6,0,1-0.4,1-1S20.6,25,20,25z" fill="#2197F3"></path> 
            <path d="M18,29h-4c-0.6,0-1,0.4-1,1s0.4,1,1,1h4c0.6,0,1-0.4,1-1S18.6,29,18,29z" fill="#2197F3"></path> 
            <path d="M28,1H2C1.4,1,1,1.4,1,2s0.4,1,1,1h26c0.6,0,1,0.4,1,1s-0.4,1-1,1H6C4.3,5,3,6.3,3,8s1.3,3,3,3h20 c0.6,0,1-0.4,1-1s-0.4-1-1-1H6C5.4,9,5,8.6,5,8s0.4-1,1-1h22c1.7,0,3-1.3,3-3S29.7,1,28,1z" fill="#2197F3"></path> </g></svg>
      <!-- Storm/Thunder -->
      <svg 
        viewBox="0 0 400 400" x="30.25%" y="89.95%" width="8.5%" height="8.5%"  
        version="1.1" id="storm-thunder" xmlns="http://www.w3.org/2000/svg" xmlns:xlink="http://www.w3.org/1999/xlink" xml:space="preserve" fill="#1D1F21">
        <g id="SVGRepo_bgCarrier" stroke-width="0"></g>
        <g id="SVGRepo_tracerCarrier" stroke-linecap="round" stroke-linejoin="round"></g>
        <g id="SVGRepo_iconCarrier"> <g> 
            <polygon style="fill:#F7CF52;" points="157.055,0 90.798,196.319 164.417,196.319 88.344,400 289.571,159.509 218.405,159.509 311.656,0 "></polygon> </g> </g></svg>
      <!-- Extreme Temperature -->
      <svg 
        viewBox="0 0 511.985 511.985" x="43.75%" y="85%" width="14.15%" height="14.15%"
        version="1.1" id="extreme-temperature" xmlns="http://www.w3.org/2000/svg" xmlns:xlink="http://www.w3.org/1999/xlink" xml:space="preserve" fill="#1D1F21">
        <g id="SVGRepo_bgCarrier" stroke-width="0"></g>
        <g id="SVGRepo_tracerCarrier" stroke-linecap="round" stroke-linejoin="round"></g>
        <g id="SVGRepo_iconCarrier"> 
          <path style="fill:#F5F7FA;" d="M138.67,501.313c-35.289,0-63.998-28.719-63.998-63.997c0-16.844,6.491-32.75,18.28-44.781 l3.047-3.109V53.327c0-23.53,19.14-42.67,42.671-42.67c23.521,0,42.662,19.14,42.662,42.67v336.098l3.047,3.109 c11.797,12.031,18.288,27.938,18.288,44.781C202.667,472.595,173.957,501.313,138.67,501.313z"></path> 
          <g> <path style="fill:#434A54;" d="M116.443,223.994c0,5.89-4.773,10.656-10.664,10.656c-5.89,0-10.663-4.766-10.663-10.656 s4.773-10.671,10.663-10.671C111.67,213.323,116.443,218.104,116.443,223.994z"></path>
            <path style="fill:#434A54;" d="M182.222,223.994c0,5.89-4.773,10.656-10.664,10.656s-10.672-4.766-10.672-10.656 s4.781-10.671,10.672-10.671S182.222,218.104,182.222,223.994z"></path></g> 
          <path style="fill:#ED5564;" d="M138.67,458.642c-11.766,0-21.336-9.562-21.336-21.326c0-11.766,9.57-21.328,21.336-21.328 c11.765,0,21.326,9.563,21.326,21.328S150.434,458.642,138.67,458.642z"></path> 
          <g> <path style="fill:#DA4453;" d="M138.67,405.316c-17.672,0-32,14.328-32,32c0,17.67,14.328,31.997,32,31.997 c17.671,0,31.998-14.327,31.998-31.997C170.668,419.644,156.341,405.316,138.67,405.316z M138.67,447.987 c-5.883,0-10.672-4.797-10.672-10.671c0-5.891,4.789-10.672,10.672-10.672c5.882,0,10.663,4.781,10.663,10.672 C149.333,443.19,144.552,447.987,138.67,447.987z"></path>
            <path style="fill:#DA4453;" d="M138.67,426.644c-5.891,0-10.672-4.766-10.672-10.656V117.325c0-5.89,4.781-10.671,10.672-10.671 c5.89,0,10.663,4.781,10.663,10.671v298.663C149.333,421.879,144.559,426.644,138.67,426.644z"></path></g> 
          <path style="fill:#E6E9ED;" d="M191.996,385.066V53.327C191.996,23.875,168.121,0,138.67,0c-29.453,0-53.335,23.875-53.335,53.327 v331.739C72.141,398.535,64,416.972,64,437.316c0,41.231,33.429,74.669,74.67,74.669c41.232,0,74.661-33.438,74.661-74.669 C213.331,416.972,205.19,398.535,191.996,385.066z M138.67,490.641c-29.406,0-53.335-23.922-53.335-53.325 c0-14.031,5.414-27.297,15.241-37.328l6.094-6.219v-8.703V53.327c0-17.64,14.352-31.999,32-31.999 c17.64,0,31.998,14.358,31.998,31.999v331.739v8.703l6.094,6.219c9.828,10.031,15.234,23.297,15.234,37.328 C191.996,466.72,168.074,490.641,138.67,490.641z"></path> 
          <g> <path style="fill:#F6BB42;" d="M330.663,139.434c-5.891,0-10.671,4.781-10.671,10.671v21.327c0,5.891,4.78,10.672,10.671,10.672 s10.671-4.781,10.671-10.672v-21.327C341.334,144.216,336.554,139.434,330.663,139.434z"></path> 
            <path style="fill:#F6BB42;" d="M330.663,331.428c-5.891,0-10.671,4.781-10.671,10.656v21.343c0,5.891,4.78,10.656,10.671,10.656 s10.671-4.766,10.671-10.656v-21.343C341.334,336.209,336.554,331.428,330.663,331.428z"></path> </g> 
          <g> <path style="fill:#FFCE54;" d="M247.697,173.808c-4.164,4.156-4.164,10.906,0,15.078l15.085,15.078 c4.164,4.172,10.93,4.172,15.086,0c4.155-4.156,4.155-10.906,0-15.078l-15.086-15.078 C258.619,169.636,251.861,169.636,247.697,173.808z"></path>
            <path style="fill:#FFCE54;" d="M383.458,309.554c-4.156,4.172-4.156,10.922,0,15.093l15.094,15.078 c4.156,4.172,10.906,4.172,15.078,0s4.172-10.922,0-15.078l-15.078-15.093C394.38,305.398,387.614,305.398,383.458,309.554z"></path></g> 
          <g> <path style="fill:#F6BB42;" d="M213.331,256.774c0,5.891,4.773,10.656,10.671,10.656h21.328c5.891,0,10.664-4.766,10.672-10.656 c-0.008-5.906-4.781-10.672-10.672-10.672h-21.328C218.104,246.102,213.331,250.868,213.331,256.774z"></path>
            <path style="fill:#F6BB42;" d="M405.333,256.774c0,5.891,4.766,10.656,10.656,10.656h21.343c5.874,0,10.654-4.766,10.654-10.656 c0-5.906-4.78-10.672-10.654-10.672h-21.343C410.098,246.102,405.333,250.868,405.333,256.774z"></path> </g> 
          <g> <path style="fill:#FFCE54;" d="M247.697,339.724c4.164,4.172,10.922,4.172,15.085,0l15.086-15.078 c4.155-4.171,4.155-10.921,0-15.093c-4.156-4.155-10.922-4.155-15.086,0l-15.085,15.093 C243.533,328.803,243.533,335.553,247.697,339.724z"></path> 
            <path style="fill:#FFCE54;" d="M383.458,203.963c4.156,4.172,10.922,4.172,15.094,0l15.078-15.078 c4.172-4.171,4.172-10.921,0-15.078c-4.172-4.172-10.922-4.172-15.078,0l-15.094,15.078 C379.302,193.057,379.302,199.807,383.458,203.963z"></path>
            <path style="fill:#FFCE54;" d="M330.663,310.085c-29.405,0-53.326-23.905-53.326-53.311c0-29.421,23.921-53.342,53.326-53.342 c29.404,0,53.326,23.921,53.326,53.342C383.989,286.18,360.067,310.085,330.663,310.085z"></path> </g> 
          <path style="fill:#F6BB42;" d="M330.663,192.776c-35.358,0-63.998,28.64-63.998,63.998c0,35.343,28.64,63.998,63.998,63.998 c35.342,0,63.998-28.655,63.998-63.998C394.661,221.416,366.005,192.776,330.663,192.776z M330.663,299.43 c-23.515,0-42.671-19.141-42.671-42.655c0-23.531,19.156-42.67,42.671-42.67s42.67,19.14,42.67,42.67 C373.333,280.289,354.178,299.43,330.663,299.43z"></path> </g></svg>
      <!-- Flood -->
      <svg 
        viewBox="0 0 72 72" x="62.10%" y="83.35%" width="17.25%" height="17.25%"
        id="flood" xmlns="http://www.w3.org/2000/svg" fill="#1D1F21">
        <g id="SVGRepo_bgCarrier" stroke-width="0"></g>
        <g id="SVGRepo_tracerCarrier" stroke-linecap="round" stroke-linejoin="round"></g>
        <g id="SVGRepo_iconCarrier"> 
          <g id="Colors"> 
            <polygon fill="#A57939" points="41.051 31.123 30.741 31.123 30.741 44.767 41.051 48 41.051 31.123"></polygon> 
            <path fill="#61B2E4" d="M9.9469,60.0494c5.3061,0,5.1545,3.1836,10.4605,3.1836s5.3061-3.1836,10.4606-3.1836,5.1544,3.1836,10.3089,3.1836,5.1544-3.1836,10.3089-3.1836S56.64,63.233,61.7947,63.233V56.8739c-5.1544,0-5.1544-3.1836-10.3089-3.1836s-5.1545,3.1836-10.3089,3.1836S36.0224,53.69,30.868,53.69s-5.1545,3.1836-10.4606,3.1836S15.253,53.69,9.9469,53.69Z"></path> 
            <path fill="#92D3F5" d="M9.9469,52.441c5.3061,0,5.1545,3.1837,10.4605,3.1837S25.7135,52.441,30.868,52.441s5.1544,3.1837,10.3089,3.1837,5.1544-3.1837,10.3089-3.1837,5.1545,3.1837,10.3089,3.1837V49.2656c-5.1544,0-5.1544-3.1837-10.3089-3.1837s-5.1545,3.1837-10.3089,3.1837-5.1545-3.1837-10.3089-3.1837-5.1545,3.1837-10.4606,3.1837-5.1544-3.1837-10.46-3.1837Z"></path> 
            <path fill="#92D3F5" d="M9.9469,45.4168c5.3061,0,5.1545,3.1836,10.4605,3.1836s5.3061-3.1836,10.4606-3.1836S36.0224,48.6,41.1769,48.6s5.1544-3.1836,10.3089-3.1836S56.64,48.6,61.7947,48.6V42.2413c-5.1544,0-5.1544-3.1836-10.3089-3.1836s-5.1545,3.1836-10.3089,3.1836-5.1545-3.1836-10.3089-3.1836-5.1545,3.1836-10.4606,3.1836-5.1544-3.1836-10.46-3.1836Z"></path> 
            <polygon fill="#EA5A47" points="16.6 25.201 35.686 8.917 55.192 25.201 16.6 25.201"></polygon> 
            <polygon fill="#EA5A47" points="28.922 14.674 28.922 10.009 22.991 10.009 22.991 19.743 28.922 14.674"></polygon> </g> 
          <g id="Lines"> 
            <line x1="55.1849" x2="55.1849" y1="50.4349" y2="25.2007" fill="none" stroke="#1D1F21" stroke-linecap="round" stroke-linejoin="round" stroke-width="2"></line>
            <line x1="16.6073" x2="16.6073" y1="25.2007" y2="50.9457" fill="none" stroke="#1D1F21" stroke-linecap="round" stroke-linejoin="round" stroke-width="2"></line>
            <polygon fill="none" stroke="#1D1F21" stroke-linecap="round" stroke-linejoin="round" stroke-width="2" points="16.6 25.201 35.686 8.917 55.192 25.201 16.6 25.201"></polygon>
            <polygon fill="none" stroke="#1D1F21" stroke-linecap="round" stroke-linejoin="round" stroke-width="2" points="28.922 14.674 28.922 10.009 22.991 10.009 22.991 19.743 28.922 14.674"></polygon>
            <polyline fill="none" stroke="#1D1F21" stroke-linecap="round" stroke-linejoin="round" stroke-width="2" points="30.741 41.21 30.741 31.123 41.051 31.123 41.051 44.197"></polyline>
            <path fill="none" stroke="#1D1F21" stroke-linecap="round" stroke-linejoin="round" stroke-width="2" d="M61.7947,56.4009c-5.1544,0-5.1544-3.1836-10.3089-3.1836s-5.1545,3.1836-10.3089,3.1836-5.1545-3.1836-10.3089-3.1836-5.1545,3.1836-10.4606,3.1836-5.1544-3.1836-10.46-3.1836"></path>
            <path fill="none" stroke="#1D1F21" stroke-linecap="round" stroke-linejoin="round" stroke-width="2" d="M61.7947,48.9356c-5.1544,0-5.1544-3.1836-10.3089-3.1836s-5.1545,3.1836-10.3089,3.1836S36.0224,45.752,30.868,45.752s-5.1545,3.1836-10.4606,3.1836S15.253,45.752,9.9469,45.752"></path> 
            <path fill="none" stroke="#1D1F21" stroke-linecap="round" stroke-linejoin="round" stroke-width="2" d="M61.7947,63.8662c-5.1544,0-5.1544-3.1836-10.3089-3.1836s-5.1545,3.1836-10.3089,3.1836-5.1545-3.1836-10.3089-3.1836-5.1545,3.1836-10.4606,3.1836-5.1544-3.1836-10.46-3.1836"></path> </g> </g></svg>
      <!-- Wildfire -->
      <svg 
        viewBox="0 0 64 64" x="81.70%" y="83%" width="18.15%" height="18.15%"
        id="wildfire" version="1.1" xml:space="preserve" xmlns="http://www.w3.org/2000/svg" xmlns:xlink="http://www.w3.org/1999/xlink" fill="#1D1F21">
        <g id="SVGRepo_bgCarrier" stroke-width="0"></g>
        <g id="SVGRepo_tracerCarrier" stroke-linecap="round" stroke-linejoin="round"></g>
        <g id="SVGRepo_iconCarrier"> 
          <g> <path fill="#F6AF62" d="M21.04,20.63c0,0-1.79,8.99-0.96,11.47c0,0,1.1-13.6,11.67-24.1c0,0-0.34,8.79,5.15,13.25s6.73,11.4,6.73,11.4 s0.62-4.74-1.24-12.33c0,0,11.67,12.12,6.32,25.65c0,0-6.45,14.9-24.92,8.38S17.74,22.97,21.04,20.63z"></path>
            <path fill="#FBD872" d="M40.75,32.12c0.17,3.81-1.55,4.81-2.94,5.01c-0.89,0.13-1.79-0.1-2.57-0.53c-7.65-4.15-3.72-14.29-3.72-14.29 c-5.01,4.79-2.4,14.74-2.4,14.74s1.55,5.64-1.62,6.13c-1.59,0.25-2.33-0.39-2.67-1.08c-0.31-0.64-0.31-1.39-0.04-2.05 c2.15-5.34,0.31-8.36,0.31-8.36c-1.03,3.06-2.12,5.08-2.91,6.29c-1.12,1.72-1.83,3.68-1.93,5.73C19.9,51.35,26.3,54.4,26.3,54.4 c10.51,5.36,15.23-4.44,15.23-4.44C46.96,39.52,40.75,32.12,40.75,32.12z"></path> </g> </g></svg>
    </g>
  </g>
</svg>